<svg xmlns="http://www.w3.org/2000/svg" viewBox="0 0 512 512" style="fill:#ff7043">
  <path d="m 110.94653,64 -94.946751,107.61723 33.296173,52.21178 18.862146,-7.111 -15.442442,12.47229 68.628144,107.61401 16.92868,-5.15286 -13.51002,10.51416 L 192.25563,448 l 61.56408,0 2.1803,-19.67414 2.1803,19.67414 61.56407,0 67.49317,-105.83439 -13.51002,-10.51416 16.92868,5.15286 68.62814,-107.61401 -15.44244,-12.47229 18.86214,7.111 33.29617,-52.21178 L 401.05348,64 Z m 13.26004,46.24229 131.79344,18.87999 131.79342,-18.87999 -36.36462,52.48219 -16.79049,-6.51459 16.79049,13.31348 10.50171,104.86925 -56.29318,48.32011 -20.08889,97.02929 -29.54844,0.10482 -29.54844,-0.10482 -20.0889,-97.02929 -56.29318,-48.32011 10.50171,-104.86925 16.79049,-13.31348 -16.79049,6.51459 z m 71.75566,107.70488 16.74198,25.44695 20.79245,0 0,-11.49218 z m 120.07555,0 -37.53442,13.95477 0,11.49218 20.79244,0 z m -88.23079,85.72527 24.61404,21.13525 3.57898,76.51825 3.57897,-76.51825 24.61404,-21.13525 z"/>
</svg>
